# xmcd
#
# Track frame offsets: 
#        150
#        17251
#        33045
#        50556
#        71970
#        94622
#        112874
#        132370
#        154533
#        172161
#        185539
#        201587
#        218400
#        235187
#        249676
#        266192
#        283366
#        295417
#        313865
#        323211
#        340586
#
# Disc length: 4709 seconds
#
# Revision: 0
# Processed by: cddbd v1.5.2PL0 Copyright (c) Steve Scherf et al.
# Submitted via: ExactAudioCopyFreeDBPlugin 1.0
#
DISCID=3e126315
DTITLE=Various Artist - Music For Cruizin' - Country To Coast - CD 2
DYEAR=2017
DGENRE=Pop
TTITLE0=Dragon - Summer
TTITLE1=Kenny Chesney - No Shoes, No Shirt, No Problems
TTITLE2=Pharrell Williams - Happy
TTITLE3=John Farnham - A Touch Of Paradise
TTITLE4=Guy Sebastian - Under The Boardwalk
TTITLE5=Coldplay - Viva La Vida
TTITLE6=Big Mountain - Baby, I Love Your Way
TTITLE7=Tina Arena -Sorrento Moon (I Remember)
TTITLE8=Phil Vasser - Just Another Day In Paradise
TTITLE9=Carole King - I Feel the Earth Move
TTITLE10=Paul Simon - Kodachrome
TTITLE11=Daryl Braithwaite - One Summer
TTITLE12=Boz Scaggs - Lido Shuffle
TTITLE13=Jimmy Cliff - I Can See Clearly Now
TTITLE14=Wilson Phillips - Go Your Own Way
TTITLE15=Londonbeat - I've Been Thinking About You
TTITLE16=The Mamas and The Papas - California Dreamin'
TTITLE17=The B-52's - Roam
TTITLE18=Bill Withers - Ain't No Sunshine
TTITLE19=Daryl Hall and John Oates - Kiss On My List
TTITLE20=Bobby Darin - Beyond The Sea
EXTD=
EXTT0=
EXTT1=
EXTT2=
EXTT3=
EXTT4=
EXTT5=
EXTT6=
EXTT7=
EXTT8=
EXTT9=
EXTT10=
EXTT11=
EXTT12=
EXTT13=
EXTT14=
EXTT15=
EXTT16=
EXTT17=
EXTT18=
EXTT19=
EXTT20=
PLAYORDER=
